<?xml version="1.0" standalone="no"?><!DOCTYPE svg PUBLIC "-//W3C//DTD SVG 1.1//EN" "http://www.w3.org/Graphics/SVG/1.1/DTD/svg11.dtd"><svg t="1752823168117" class="icon" viewBox="0 0 1024 1024" version="1.1" xmlns="http://www.w3.org/2000/svg" p-id="7917" xmlns:xlink="http://www.w3.org/1999/xlink" width="64" height="64"><path d="M590.9 333.3h52.8V386c0 7.9 6.4 14.3 14.3 14.3h4.7c7.9 0 14.3-6.4 14.3-14.3v-52.8h52.8c7.9 0 14.3-6.4 14.3-14.3v-4.7c0-7.9-6.4-14.3-14.3-14.3H677v-52.8c0-7.9-6.4-14.3-14.3-14.3H658c-7.9 0-14.3 6.4-14.3 14.3v52.8h-52.8c-7.9 0-14.3 6.4-14.3 14.3v4.7c0 8 6.4 14.4 14.3 14.4zM795 520.4c-9.7 0-17.5 7.8-17.5 17.5v21.5H514.6v-93.2c0-9.7-7.8-17.5-17.5-17.5H255.2V308.2c0-9.7-7.8-17.5-17.5-17.5s-17.5 7.8-17.5 17.5v483.5c0 9.7 7.8 17.5 17.5 17.5s17.5-7.8 17.5-17.5V683.6h313c9.7 0 17.5-7.8 17.5-17.5s-7.8-17.5-17.5-17.5h-313v-54.2h522.3v56.2H658.2c-9.7 0-17.5 7.8-17.5 17.5s7.8 17.5 17.5 17.5h119.3v108.3c0 9.7 7.8 17.5 17.5 17.5s17.5-7.8 17.5-17.5v-256c0-9.7-7.8-17.5-17.5-17.5z m-539.8-36.7h224.4v75.7H255.2v-75.7z" p-id="7918"></path></svg>